# Blender v2.80 (sub 75) OBJ File: 'patio.blend'
# www.blender.org
mtllib bench.mtl
o Cube.002_Cube
v -0.435534 0.148294 0.189258
v -0.381158 0.148294 0.189258
v -0.435534 0.148294 -0.007618
v -0.381158 0.148294 -0.007618
v -0.381158 0.401780 -0.135000
v -0.435534 0.401780 -0.135000
v -0.435534 0.182933 -0.094021
v -0.381158 0.182933 -0.094021
v -0.435534 0.148294 -0.067207
v -0.435534 0.167502 -0.089370
v -0.435534 0.150868 -0.076810
v -0.435534 0.157898 -0.083841
v -0.381158 0.167502 -0.089370
v -0.381158 0.148294 -0.067207
v -0.381158 0.157898 -0.083841
v -0.381158 0.150868 -0.076810
v 0.381933 0.148294 0.189258
v 0.436309 0.148294 0.189258
v 0.381933 0.148294 -0.007618
v 0.436309 0.148294 -0.007618
v 0.436309 0.401780 -0.135000
v 0.381933 0.401780 -0.135000
v 0.381933 0.182933 -0.094021
v 0.436309 0.182933 -0.094021
v 0.381933 0.148294 -0.067207
v 0.381933 0.167502 -0.089370
v 0.381933 0.150868 -0.076810
v 0.381933 0.157898 -0.083841
v 0.436309 0.167502 -0.089370
v 0.436309 0.148294 -0.067207
v 0.436309 0.157898 -0.083841
v 0.436309 0.150868 -0.076810
v -0.435534 0.138742 0.189258
v -0.381158 0.138742 0.189258
v -0.435534 0.138742 -0.007618
v -0.381158 0.138742 -0.007618
v -0.381158 0.400022 -0.144390
v -0.435534 0.400022 -0.144390
v -0.435534 0.180673 -0.103302
v -0.381158 0.180673 -0.103302
v -0.435534 0.138823 -0.068453
v -0.435534 0.163715 -0.098141
v -0.435534 0.142595 -0.081587
v -0.435534 0.152087 -0.091423
v -0.381158 0.163715 -0.098141
v -0.381158 0.138823 -0.068453
v -0.381158 0.152087 -0.091423
v -0.381158 0.142595 -0.081587
v 0.381933 0.138742 0.189258
v 0.436309 0.138742 0.189258
v 0.381933 0.138742 -0.007618
v 0.436309 0.138742 -0.007618
v 0.436309 0.400022 -0.144390
v 0.381933 0.400022 -0.144390
v 0.381933 0.180673 -0.103302
v 0.436309 0.180673 -0.103302
v 0.381933 0.138823 -0.068453
v 0.381933 0.163715 -0.098141
v 0.381933 0.142595 -0.081587
v 0.381933 0.152087 -0.091423
v 0.436309 0.163715 -0.098141
v 0.436309 0.138823 -0.068453
v 0.436309 0.152087 -0.091423
v 0.436309 0.142595 -0.081587
v 0.381933 0.047061 -0.081587
v 0.436309 0.047061 -0.081587
v 0.436309 0.047061 -0.068453
v 0.381933 0.047061 -0.068453
v -0.435534 0.047061 -0.081587
v -0.381158 0.047061 -0.081587
v -0.381158 0.047061 -0.068453
v -0.435534 0.047061 -0.068453
v 0.381149 0.302324 -0.118899
v 0.437236 0.302324 -0.118899
v 0.381149 0.047061 0.189258
v 0.437236 0.047061 0.189258
v 0.381149 0.254030 0.126761
v 0.381149 0.196735 0.189258
v 0.381149 0.246354 0.158010
v 0.381149 0.225382 0.180885
v 0.437236 0.196735 0.189258
v 0.437236 0.254030 0.126761
v 0.437236 0.225382 0.180885
v 0.437236 0.246354 0.158010
v 0.381149 0.313444 -0.116298
v 0.437236 0.313444 -0.116298
v 0.381149 0.047061 0.201663
v 0.437236 0.047061 0.201663
v 0.381149 0.265086 0.129667
v 0.381149 0.198219 0.201557
v 0.381149 0.256203 0.164212
v 0.381149 0.231069 0.191628
v 0.437236 0.198219 0.201557
v 0.437236 0.265086 0.129667
v 0.437236 0.231069 0.191628
v 0.437236 0.256203 0.164212
v -0.436506 0.302324 -0.118899
v -0.380419 0.302324 -0.118899
v -0.436506 0.047061 0.189258
v -0.380419 0.047061 0.189258
v -0.436506 0.254030 0.126761
v -0.436506 0.196735 0.189258
v -0.436506 0.246354 0.158010
v -0.436506 0.225382 0.180885
v -0.380419 0.196735 0.189258
v -0.380419 0.254030 0.126761
v -0.380419 0.225382 0.180885
v -0.380419 0.246354 0.158010
v -0.436506 0.313444 -0.116298
v -0.380419 0.313444 -0.116298
v -0.436506 0.047061 0.201663
v -0.380419 0.047061 0.201663
v -0.436506 0.265086 0.129667
v -0.436506 0.198219 0.201557
v -0.436506 0.256203 0.164212
v -0.436506 0.231069 0.191628
v -0.380419 0.198219 0.201557
v -0.380419 0.265086 0.129667
v -0.380419 0.231069 0.191628
v -0.380419 0.256203 0.164212
v 0.449672 0.145333 0.176949
v 0.449672 0.155265 0.176949
v 0.449672 0.145333 0.064931
v 0.449672 0.155265 0.064931
v -0.449672 0.145333 0.176949
v -0.449672 0.155265 0.176949
v -0.449672 0.145333 0.064931
v -0.449672 0.155265 0.064931
v 0.449672 0.145333 0.056009
v 0.449672 0.155265 0.056009
v 0.449672 0.145333 -0.056009
v 0.449672 0.155265 -0.056009
v -0.449672 0.145333 0.056009
v -0.449672 0.155265 0.056009
v -0.449672 0.145333 -0.056009
v -0.449672 0.155265 -0.056009
v 0.449672 0.182744 -0.099813
v 0.449672 0.184653 -0.090065
v 0.449672 0.292674 -0.121340
v 0.449672 0.294583 -0.111593
v -0.449672 0.182744 -0.099813
v -0.449672 0.184653 -0.090065
v -0.449672 0.292674 -0.121340
v -0.449672 0.294583 -0.111593
v 0.449672 0.310111 -0.121251
v 0.449672 0.312020 -0.111504
v 0.449672 0.420041 -0.142778
v 0.449672 0.421950 -0.133031
v -0.449672 0.310111 -0.121251
v -0.449672 0.312020 -0.111504
v -0.449672 0.420041 -0.142778
v -0.449672 0.421950 -0.133031
vt 0.836472 0.330794
vt 0.840460 0.330794
vt 0.840456 0.446735
vt 0.836468 0.446731
vt 0.108189 0.514864
vt 0.115681 0.514701
vt 0.127261 0.997460
vt 0.118925 0.997581
vt 0.840392 0.481829
vt 0.836403 0.481822
vt 0.111320 0.338723
vt 0.104494 0.338881
vt 0.101808 0.227611
vt 0.108750 0.227452
vt 0.099752 0.143825
vt 0.107270 0.143704
vt 0.099879 0.109329
vt 0.106868 0.109316
vt 0.840527 0.322596
vt 0.836538 0.322596
vt 0.836539 0.206644
vt 0.840527 0.206640
vt 0.257780 0.483878
vt 0.250281 0.483672
vt 0.260983 0.000279
vt 0.269327 0.000524
vt 0.836472 0.171564
vt 0.840459 0.171557
vt 0.246576 0.659806
vt 0.253396 0.659959
vt 0.250842 0.770983
vt 0.243914 0.770837
vt 0.249364 0.854461
vt 0.241862 0.854430
vt 0.248983 0.888876
vt 0.242004 0.888809
vt 0.773004 0.330800
vt 0.773112 0.446611
vt 0.769128 0.446634
vt 0.769010 0.330804
vt 0.098757 0.492134
vt 0.110489 0.981407
vt 0.101952 0.981658
vt 0.091176 0.492364
vt 0.773472 0.482405
vt 0.769486 0.482445
vt 0.085801 0.296062
vt 0.080440 0.161818
vt 0.087474 0.161043
vt 0.092745 0.295830
vt 0.060399 0.050655
vt 0.067449 0.049383
vt 0.406384 0.039636
vt 0.414281 0.014062
vt 0.414281 0.485101
vt 0.406505 0.485135
vt 0.769010 0.322538
vt 0.769229 0.206757
vt 0.773212 0.206781
vt 0.772993 0.322545
vt 0.233233 0.506296
vt 0.244010 0.016314
vt 0.252557 0.016437
vt 0.240836 0.506479
vt 0.769579 0.170954
vt 0.773574 0.170993
vt 0.234859 0.702795
vt 0.229615 0.837241
vt 0.222611 0.836473
vt 0.227907 0.702563
vt 0.209616 0.948691
vt 0.202626 0.947432
vt 0.430617 0.039542
vt 0.438485 0.014062
vt 0.438485 0.483370
vt 0.430738 0.483404
vt 0.840460 0.326805
vt 0.903907 0.326807
vt 0.903907 0.330796
vt 0.903903 0.446737
vt 0.124113 0.491136
vt 0.134901 0.981077
vt 0.132319 0.999819
vt 0.139959 0.983435
vt 0.119968 0.160757
vt 0.120990 0.295547
vt 0.139959 0.047483
vt 0.138623 0.000110
vt 0.068540 0.003338
vt 0.903907 0.446851
vt 0.903297 0.482679
vt 0.903983 0.206640
vt 0.903983 0.322596
vt 0.840527 0.326585
vt 0.903983 0.326585
vt 0.276994 0.016964
vt 0.266222 0.507447
vt 0.274402 -0.001843
vt 0.282070 0.014597
vt 0.263049 0.703071
vt 0.262030 0.837443
vt 0.282070 0.950618
vt 0.210710 0.994684
vt 0.280762 0.997937
vt 0.903346 0.170701
vt 0.903959 0.206518
vt 0.438503 0.487365
vt 0.430756 0.487399
vt 0.446675 0.014153
vt 0.446675 0.483462
vt 0.454543 0.032711
vt 0.462409 0.032797
vt 0.462409 0.483585
vt 0.454543 0.483499
vt 0.422501 0.485193
vt 0.430397 0.485231
vt 0.430378 0.489303
vt 0.422481 0.489265
vt 0.422500 0.014153
vt 0.398609 0.039553
vt 0.398731 0.485053
vt 0.430397 0.032780
vt 0.275069 0.501550
vt 0.275069 0.742841
vt 0.516360 0.742841
vt 0.516360 0.501550
vt 0.516360 0.984131
vt 0.757650 0.984131
vt 0.757650 0.742841
vt 0.998941 0.742841
vt 0.998941 0.501550
vt 0.757650 0.501550
vt 0.757650 0.260260
vt 0.516360 0.260260
vt 0.516360 0.018969
vt 0.757650 0.018969
vt 0.275069 0.501550
vt 0.275069 0.742841
vt 0.516360 0.742841
vt 0.516360 0.501550
vt 0.516360 0.984131
vt 0.757650 0.984131
vt 0.757650 0.742841
vt 0.998941 0.742841
vt 0.998941 0.501550
vt 0.757650 0.501550
vt 0.757650 0.260260
vt 0.516360 0.260260
vt 0.516360 0.018969
vt 0.757650 0.018969
vt 0.275069 0.501550
vt 0.275069 0.742841
vt 0.516360 0.742841
vt 0.516360 0.501550
vt 0.516360 0.984131
vt 0.757650 0.984131
vt 0.757650 0.742841
vt 0.998941 0.742841
vt 0.998941 0.501550
vt 0.757650 0.501550
vt 0.757650 0.260260
vt 0.516360 0.260260
vt 0.516360 0.018969
vt 0.757650 0.018969
vt 0.275069 0.501550
vt 0.275069 0.742841
vt 0.516360 0.742841
vt 0.516360 0.501550
vt 0.516360 0.984131
vt 0.757650 0.984131
vt 0.757650 0.742841
vt 0.998941 0.742841
vt 0.998941 0.501550
vt 0.757650 0.501550
vt 0.757650 0.260260
vt 0.516360 0.260260
vt 0.516360 0.018969
vt 0.757650 0.018969
vt 0.175962 0.334248
vt 0.171133 0.334032
vt 0.183921 0.003010
vt 0.189630 0.003268
vt 0.167719 0.532194
vt 0.163482 0.532034
vt 0.167579 0.531994
vt 0.169431 0.684097
vt 0.164497 0.684204
vt 0.170383 0.746997
vt 0.166526 0.747068
vt 0.175129 0.959077
vt 0.171487 0.959153
vt 0.159388 0.342213
vt 0.172268 0.002633
vt 0.178209 0.002818
vt 0.164275 0.342407
vt 0.154141 0.570064
vt 0.149685 0.569932
vt 0.149755 0.752000
vt 0.146206 0.751889
vt 0.148436 0.798483
vt 0.145192 0.798513
vt 0.151160 0.997144
vt 0.154626 0.997030
vt 0.172916 0.960211
vt 0.195492 0.998821
vt 0.193278 0.999955
vt 0.189769 0.000045
vt 0.195492 0.000292
vt 0.195352 0.003515
vt 0.182155 0.343265
vt 0.173997 0.571823
vt 0.177235 0.566320
vt 0.185328 0.751042
vt 0.189305 0.785910
vt 0.032939 0.668850
vt 0.037658 0.668657
vt 0.051693 0.991728
vt 0.046117 0.991917
vt 0.025059 0.475335
vt 0.029201 0.475166
vt 0.029177 0.475382
vt 0.026174 0.322367
vt 0.031148 0.322439
vt 0.028181 0.258790
vt 0.032108 0.258885
vt 0.032883 0.041839
vt 0.036608 0.041933
vt 0.026228 0.660704
vt 0.040530 0.992116
vt 0.034747 0.992386
vt 0.021474 0.660935
vt 0.011375 0.437688
vt 0.015733 0.437553
vt 0.007679 0.253983
vt 0.011257 0.253870
vt 0.006197 0.206799
vt 0.009572 0.206814
vt 0.015482 0.002874
vt 0.011872 0.002784
vt 0.057409 0.001203
vt 0.055141 0.000045
vt 0.034340 0.040774
vt 0.051835 0.994867
vt 0.057267 0.991476
vt 0.057409 0.994614
vt 0.035259 0.436412
vt 0.043688 0.659830
vt 0.047280 0.254787
vt 0.038899 0.440947
vt 0.051355 0.219257
vn 0.0000 1.0000 0.0000
vn 0.0000 0.1841 0.9829
vn 0.0000 0.4990 0.8666
vn 0.0000 0.7071 0.7071
vn 0.0000 0.9659 0.2588
vn 0.0000 0.2885 0.9575
vn 0.0000 -1.0000 0.0000
vn 0.0000 -0.1841 -0.9829
vn 0.0000 -1.0000 -0.0013
vn 0.0000 -0.5002 -0.8659
vn 0.0000 -0.7196 -0.6944
vn -1.0000 0.0000 0.0000
vn 0.0000 -0.2912 -0.9567
vn 0.0000 0.0000 1.0000
vn 1.0000 0.0000 0.0000
vn 0.0000 0.9829 -0.1840
vn 0.0000 0.0000 -1.0000
vn 0.0000 0.9814 -0.1922
vn 0.0000 -0.9814 0.1922
vn 0.0000 -0.1922 -0.9814
vn 0.0000 0.1922 0.9814
vn -0.0000 -0.1417 -0.9899
vn -0.0000 -0.2805 -0.9598
vn -0.0000 -0.7371 -0.6758
vn -0.0000 -0.8817 -0.4719
vn -0.0000 -0.9764 -0.2158
vn -0.0000 -0.9812 -0.1929
vn 0.0000 0.1466 0.9892
vn 0.0000 0.0007 1.0000
vn 0.0000 0.2893 0.9572
vn 0.0000 0.7371 0.6758
vn 0.0000 0.8791 0.4767
vn 0.0000 0.9753 0.2211
vn 0.0000 0.9812 0.1929
vn 0.0000 0.2278 -0.9737
vn 0.0000 -0.2278 0.9737
usemtl Material.008
s off
f 1/1/1 2/2/1 4/3/1 3/4/1
f 7/5/2 8/6/2 5/7/2 6/8/2
f 3/4/1 4/3/1 14/9/1 9/10/1
f 13/11/3 10/12/3 12/13/3 15/14/3
f 15/14/4 12/13/4 11/15/4 16/16/4
f 16/16/5 11/15/5 9/17/5 14/18/5
f 10/12/6 13/11/6 8/6/6 7/5/6
f 17/19/1 18/20/1 20/21/1 19/22/1
f 23/23/2 24/24/2 21/25/2 22/26/2
f 19/22/1 20/21/1 30/27/1 25/28/1
f 29/29/3 26/30/3 28/31/3 31/32/3
f 31/32/4 28/31/4 27/33/4 32/34/4
f 32/34/5 27/33/5 25/35/5 30/36/5
f 26/30/6 29/29/6 24/24/6 23/23/6
f 33/37/7 35/38/7 36/39/7 34/40/7
f 39/41/8 38/42/8 37/43/8 40/44/8
f 35/38/9 41/45/9 46/46/9 36/39/9
f 45/47/10 47/48/10 44/49/10 42/50/10
f 47/48/11 48/51/11 43/52/11 44/49/11
f 41/53/12 43/54/12 69/55/12 72/56/12
f 42/50/13 39/41/13 40/44/13 45/47/13
f 49/57/7 51/58/7 52/59/7 50/60/7
f 55/61/8 54/62/8 53/63/8 56/64/8
f 51/58/9 57/65/9 62/66/9 52/59/9
f 61/67/10 63/68/10 60/69/10 58/70/10
f 63/68/11 64/71/11 59/72/11 60/69/11
f 57/73/12 59/74/12 65/75/12 68/76/12
f 58/70/13 55/61/13 56/64/13 61/67/13
f 1/1/12 3/4/12 35/38/12 33/37/12
f 2/2/14 1/77/14 33/78/14 34/79/14
f 4/3/15 2/2/15 34/79/15 36/80/15
f 7/5/12 6/8/12 38/42/12 39/41/12
f 5/7/15 8/6/15 40/81/15 37/82/15
f 6/83/16 5/7/16 37/82/16 38/84/16
f 13/11/15 15/14/15 47/85/15 45/86/15
f 12/13/12 10/12/12 42/50/12 44/49/12
f 15/14/15 16/16/15 48/87/15 47/85/15
f 11/15/12 12/13/12 44/49/12 43/52/12
f 16/16/15 14/18/15 46/88/15 48/87/15
f 9/17/12 11/15/12 43/52/12 41/89/12
f 10/12/12 7/5/12 39/41/12 42/50/12
f 8/6/15 13/11/15 45/86/15 40/81/15
f 3/4/12 9/10/12 41/45/12 35/38/12
f 14/9/15 4/3/15 36/90/15 46/91/15
f 17/19/12 19/22/12 51/92/12 49/93/12
f 18/94/14 17/19/14 49/93/14 50/95/14
f 20/21/15 18/20/15 50/60/15 52/59/15
f 23/23/12 22/26/12 54/96/12 55/97/12
f 21/25/15 24/24/15 56/64/15 53/63/15
f 22/26/16 21/98/16 53/99/16 54/96/16
f 29/29/15 31/32/15 63/68/15 61/67/15
f 28/31/12 26/30/12 58/100/12 60/101/12
f 31/32/15 32/34/15 64/71/15 63/68/15
f 27/33/12 28/31/12 60/101/12 59/102/12
f 32/34/15 30/36/15 62/103/15 64/71/15
f 25/35/12 27/33/12 59/102/12 57/104/12
f 26/30/12 23/23/12 55/97/12 58/100/12
f 24/24/15 29/29/15 61/67/15 56/64/15
f 19/22/12 25/28/12 57/105/12 51/106/12
f 30/27/15 20/21/15 52/59/15 62/66/15
f 66/107/7 67/108/7 68/76/7 65/75/7
f 59/74/17 64/109/17 66/110/17 65/75/17
f 62/111/14 57/112/14 68/113/14 67/114/14
f 64/109/15 62/111/15 67/114/15 66/110/15
f 70/115/7 71/116/7 72/117/7 69/118/7
f 43/54/17 48/119/17 70/115/17 69/55/17
f 46/120/14 41/53/14 72/56/14 71/121/14
f 48/119/15 46/122/15 71/116/15 70/115/15
f 121/123/15 123/124/15 124/125/15 122/126/15
f 123/127/17 127/128/17 128/129/17 124/125/17
f 127/130/12 125/131/12 126/132/12 128/129/12
f 125/133/14 121/134/14 122/126/14 126/132/14
f 123/135/7 121/134/7 125/133/7 127/136/7
f 128/129/1 126/132/1 122/126/1 124/125/1
f 129/137/15 131/138/15 132/139/15 130/140/15
f 131/141/17 135/142/17 136/143/17 132/139/17
f 135/144/12 133/145/12 134/146/12 136/143/12
f 133/147/14 129/148/14 130/140/14 134/146/14
f 131/149/7 129/148/7 133/147/7 135/150/7
f 136/143/1 134/146/1 130/140/1 132/139/1
f 137/151/15 139/152/15 140/153/15 138/154/15
f 139/155/18 143/156/18 144/157/18 140/153/18
f 143/158/12 141/159/12 142/160/12 144/157/12
f 141/161/19 137/162/19 138/154/19 142/160/19
f 139/163/20 137/162/20 141/161/20 143/164/20
f 144/157/21 142/160/21 138/154/21 140/153/21
f 145/165/15 147/166/15 148/167/15 146/168/15
f 147/169/18 151/170/18 152/171/18 148/167/18
f 151/172/12 149/173/12 150/174/12 152/171/12
f 149/175/19 145/176/19 146/168/19 150/174/19
f 147/177/20 145/176/20 149/175/20 151/178/20
f 152/171/21 150/174/21 146/168/21 148/167/21
s 1
f 78/179/22 81/180/22 76/181/17 75/182/17
f 81/180/22 78/179/22 80/183/23 83/184/23
f 83/184/24 80/185/24 79/186/25 84/187/25
f 84/187/25 79/186/25 77/188/26 82/189/26
f 73/190/27 74/191/27 82/189/26 77/188/26
f 90/192/28 87/193/29 88/194/29 93/195/28
f 93/195/28 95/196/30 92/197/30 90/192/28
f 95/196/31 96/198/32 91/199/32 92/197/31
f 96/198/32 94/200/33 89/201/33 91/199/32
f 85/202/34 89/201/33 94/200/33 86/203/34
f 74/204/35 73/190/35 85/205/35 86/206/35
f 75/182/7 76/207/7 88/208/7 87/209/7
f 81/180/15 83/184/15 95/196/15 93/195/15
f 80/183/12 78/179/12 90/210/12 92/211/12
f 83/184/15 84/187/15 96/198/15 95/196/15
f 79/186/12 80/185/12 92/212/12 91/213/12
f 84/187/15 82/189/15 94/200/15 96/198/15
f 77/188/12 79/186/12 91/213/12 89/214/12
f 73/190/12 77/188/12 89/214/12 85/205/12
f 82/189/15 74/191/15 86/203/15 94/200/15
f 78/179/12 75/182/12 87/209/12 90/210/12
f 76/181/15 81/180/15 93/195/15 88/194/15
f 102/215/22 105/216/22 100/217/17 99/218/17
f 105/216/22 102/215/22 104/219/23 107/220/23
f 107/221/24 104/219/24 103/222/25 108/223/25
f 108/223/25 103/222/25 101/224/26 106/225/26
f 97/226/27 98/227/27 106/225/26 101/224/26
f 114/228/28 111/229/29 112/230/29 117/231/28
f 117/231/28 119/232/30 116/233/30 114/228/28
f 119/232/31 120/234/32 115/235/32 116/233/31
f 120/234/32 118/236/33 113/237/33 115/235/32
f 109/238/34 113/237/33 118/236/33 110/239/34
f 98/227/36 110/240/36 109/241/36 97/242/36
f 99/243/7 100/217/7 112/244/7 111/245/7
f 105/216/15 107/220/15 119/246/15 117/247/15
f 104/219/12 102/215/12 114/228/12 116/233/12
f 107/221/15 108/223/15 120/248/15 119/249/15
f 103/222/12 104/219/12 116/233/12 115/235/12
f 108/223/15 106/225/15 118/250/15 120/248/15
f 101/224/12 103/222/12 115/235/12 113/237/12
f 97/226/12 101/224/12 113/237/12 109/238/12
f 106/225/15 98/227/15 110/240/15 118/250/15
f 102/215/12 99/218/12 111/229/12 114/228/12
f 100/217/15 105/216/15 117/247/15 112/244/15
