# Blender v2.80 (sub 75) OBJ File: 'building3.blend'
# www.blender.org
mtllib build3Lights.mtl
o Cube.000
v -2.049922 5.750062 2.580547
v -1.166162 5.750062 2.580547
v -2.049922 5.652511 2.580547
v -2.049922 5.328190 2.580547
v -1.166162 5.652511 2.580547
v -1.166162 5.328190 2.580547
v -2.049922 4.779409 2.580547
v -1.166162 4.779409 2.580547
v -5.058613 10.694669 2.580547
v -4.174854 10.694669 2.580547
v -5.058613 10.597118 2.580547
v -5.058613 10.272798 2.580547
v -4.174854 10.597118 2.580547
v -4.174854 10.272798 2.580547
v -5.058613 9.724016 2.580547
v -4.174854 9.724016 2.580547
v 4.004309 8.154320 2.580547
v 4.888068 8.154320 2.580547
v 4.004309 8.056769 2.580547
v 4.004309 7.732449 2.580547
v 4.888068 8.056769 2.580547
v 4.888068 7.732449 2.580547
v 4.004309 7.183668 2.580547
v 4.888068 7.183668 2.580547
v -2.049922 8.154320 2.580547
v -1.166162 8.154320 2.580547
v -2.049922 8.056769 2.580547
v -2.049922 7.732449 2.580547
v -1.166162 8.056769 2.580547
v -1.166162 7.732449 2.580547
v -2.049922 7.183668 2.580547
v -1.166162 7.183668 2.580547
vt 0.908389 0.870755
vt 0.908389 0.876311
vt 0.827456 0.876311
vt 0.827456 0.870755
vt 0.908389 0.852286
vt 0.827456 0.852286
vt 0.908389 0.821794
vt 0.908389 0.852057
vt 0.827456 0.852057
vt 0.826610 0.821794
vt 0.908389 0.870755
vt 0.908389 0.876311
vt 0.827456 0.876311
vt 0.827456 0.870755
vt 0.908389 0.852286
vt 0.827456 0.852286
vt 0.908389 0.821794
vt 0.908389 0.852057
vt 0.827456 0.852057
vt 0.826610 0.821794
vt 0.908389 0.870755
vt 0.908389 0.876311
vt 0.827456 0.876311
vt 0.827456 0.870755
vt 0.908389 0.852286
vt 0.827456 0.852286
vt 0.908389 0.821794
vt 0.908389 0.852057
vt 0.827456 0.852057
vt 0.826610 0.821794
vt 0.908389 0.870755
vt 0.908389 0.876311
vt 0.827456 0.876311
vt 0.827456 0.870755
vt 0.908389 0.852286
vt 0.827456 0.852286
vt 0.908389 0.821794
vt 0.908389 0.852057
vt 0.827456 0.852057
vt 0.826610 0.821794
vn 0.0000 0.0000 1.0000
usemtl Material
s off
f 5/1/1 2/2/1 1/3/1 3/4/1
f 6/5/1 5/1/1 3/4/1 4/6/1
f 8/7/1 6/8/1 4/9/1 7/10/1
f 13/11/1 10/12/1 9/13/1 11/14/1
f 14/15/1 13/11/1 11/14/1 12/16/1
f 16/17/1 14/18/1 12/19/1 15/20/1
f 21/21/1 18/22/1 17/23/1 19/24/1
f 22/25/1 21/21/1 19/24/1 20/26/1
f 24/27/1 22/28/1 20/29/1 23/30/1
f 29/31/1 26/32/1 25/33/1 27/34/1
f 30/35/1 29/31/1 27/34/1 28/36/1
f 32/37/1 30/38/1 28/39/1 31/40/1
