# Blender v2.80 (sub 75) OBJ File: 'building9.blend'
# www.blender.org
mtllib build9.mtl
o Cube.001
v -1.176556 0.000000 3.631191
v -1.176556 3.649137 3.631191
v -1.176556 0.000000 3.361293
v -1.176556 3.649137 3.361293
v 1.171222 0.000000 3.631191
v 1.171222 3.649137 3.631191
v 1.171222 0.000000 3.361293
v 1.171222 3.649137 3.361293
v -0.891631 0.000000 3.361293
v -0.891631 3.649137 3.361293
v -0.891631 0.000000 3.631191
v -0.891631 3.649137 3.631191
v 0.907635 3.649137 3.361293
v 0.907635 0.000000 3.631191
v 0.907635 0.000000 3.361293
v 0.907635 3.649137 3.631191
v -1.176556 3.421066 3.631191
v -1.176556 3.421066 3.361293
v 1.171222 3.421066 3.361293
v 1.171222 3.421066 3.631191
v -0.891631 3.421066 3.631191
v -0.891631 3.421066 3.361293
v 0.907635 3.421066 3.631191
v 0.907635 3.421066 3.361293
v -1.176556 3.421066 3.754303
v -1.176556 3.649137 3.754303
v 1.171222 3.421066 3.754303
v 1.171222 0.000000 3.754303
v 0.907635 0.000000 3.754303
v -0.891631 3.649137 3.754303
v -1.176556 0.000000 3.754303
v -0.891631 0.000000 3.754303
v 0.907635 3.649137 3.754303
v -0.891631 3.421066 3.754303
v 1.171222 3.649137 3.754303
v 0.907635 3.421066 3.754303
v 6.185174 8.645647 3.317436
v 6.468448 0.000000 3.589924
v 6.185174 8.645647 -3.317436
v 6.468448 0.000000 -3.589925
v -6.185173 8.645647 3.317436
v -6.468447 0.000000 3.589924
v -6.185173 8.645647 -3.317436
v -6.468447 0.000000 -3.589925
v 6.468448 4.159081 3.589924
v -6.468447 4.159081 -3.589925
v 6.468448 4.159081 -3.589925
v -6.468447 4.159081 3.589924
v -6.468447 5.010545 -3.589925
v 6.468448 5.010545 3.589924
v 6.468448 5.010545 -3.589925
v -6.468447 5.010545 3.589924
v -6.468447 7.826931 -3.589925
v 6.468448 7.826931 3.589924
v 6.468448 7.826931 -3.589925
v -6.468447 7.826931 3.589924
v 6.645898 5.010545 3.762918
v 6.645898 4.159081 3.762918
v 6.645898 5.010545 -3.762919
v 6.645898 4.159081 -3.762919
v -6.645898 5.010545 3.762918
v -6.645898 4.159081 3.762918
v -6.645898 4.159081 -3.762919
v -6.645898 5.010545 -3.762919
v -6.668398 7.826931 -3.780534
v -6.668398 8.645647 -3.780534
v 6.668398 8.645647 -3.780534
v 6.668398 8.645647 3.780533
v -6.668398 8.645647 3.780533
v 6.668398 7.826931 3.780533
v 6.668398 7.826931 -3.780534
v -6.668398 7.826931 3.780533
v -6.801614 5.575526 3.767952
v -6.801614 7.575526 3.767952
v -6.801614 5.575526 3.411862
v -6.801614 7.575526 3.411862
v 6.926168 5.575526 3.767952
v 6.926168 7.575526 3.767952
v 6.926168 5.575526 3.411862
v 6.926168 7.575526 3.411862
v 6.468448 8.645647 -3.589925
v -6.468447 8.645647 -3.589925
v 6.468448 8.645647 3.589924
v -6.468447 8.645647 3.589924
v 6.185174 8.113721 -3.317436
v -6.185173 8.113721 -3.317436
v 6.185174 8.113721 3.317436
v -6.185173 8.113721 3.317436
v 1.850703 0.978464 3.777706
v 1.850703 3.308593 3.777706
v 1.677120 0.836378 3.476890
v 1.677120 3.450679 3.476890
v 5.825246 0.978464 3.777706
v 5.825246 3.308593 3.777706
v 5.998829 0.836378 3.476890
v 5.998829 3.450679 3.476890
v 1.677120 0.836378 3.777706
v 1.677120 3.450679 3.777706
v 5.998829 3.450679 3.777706
v 5.998829 0.836378 3.777706
v 1.850703 0.978464 3.624170
v 1.850703 3.308593 3.624170
v 5.825246 3.308593 3.624170
v 5.825246 0.978464 3.624170
v -5.848589 0.978464 3.777706
v -5.848589 3.308593 3.777706
v -6.022172 0.836378 3.476890
v -6.022172 3.450679 3.476890
v -1.874047 0.978464 3.777706
v -1.874047 3.308593 3.777706
v -1.700464 0.836378 3.476890
v -1.700464 3.450679 3.476890
v -6.022172 0.836378 3.777706
v -6.022172 3.450679 3.777706
v -1.700464 3.450679 3.777706
v -1.700464 0.836378 3.777706
v -5.848589 0.978464 3.624169
v -5.848589 3.308593 3.624169
v -1.874047 3.308593 3.624169
v -1.874047 0.978464 3.624169
vt 0.221692 0.228407
vt 0.221692 0.232964
vt 0.148772 0.232964
vt 0.148772 0.228407
vt 0.083908 0.261539
vt 0.075721 0.261539
vt 0.075721 0.266096
vt 0.083908 0.266096
vt 0.148772 0.091550
vt 0.148772 0.086993
vt 0.221692 0.086993
vt 0.221692 0.091551
vt 0.254954 0.228407
vt 0.254954 0.232964
vt 0.140455 0.013942
vt 0.140455 0.086863
vt 0.148641 0.086863
vt 0.148641 0.013942
vt 0.148772 0.022792
vt 0.148772 0.013942
vt 0.221692 0.013942
vt 0.221692 0.022792
vt 0.148772 0.078676
vt 0.221692 0.078676
vt 0.075721 0.013942
vt 0.075721 0.086863
vt 0.084570 0.086863
vt 0.084570 0.013942
vt 0.254954 0.013942
vt 0.254954 0.022792
vt 0.148641 0.261539
vt 0.139792 0.261539
vt 0.139792 0.266096
vt 0.148641 0.266096
vt 0.221692 0.160044
vt 0.254954 0.160044
vt 0.148772 0.086863
vt 0.221692 0.086863
vt 0.139792 0.193176
vt 0.083908 0.193176
vt 0.075721 0.120125
vt 0.084570 0.120125
vt 0.148641 0.193176
vt 0.323448 0.069826
vt 0.255085 0.069826
vt 0.255085 0.013942
vt 0.323448 0.013942
vt 0.254954 0.086993
vt 0.254954 0.091551
vt 0.148772 0.159914
vt 0.221692 0.159914
vt 0.075721 0.193176
vt 0.148772 0.160044
vt 0.084570 0.188488
vt 0.084570 0.193045
vt 0.075721 0.193045
vt 0.075721 0.188488
vt 0.140455 0.188488
vt 0.140455 0.193045
vt 0.148641 0.188488
vt 0.148641 0.193045
vt 0.148641 0.120125
vt 0.140455 0.120125
vt 0.255085 0.228407
vt 0.255085 0.160044
vt 0.288347 0.160044
vt 0.288347 0.228407
vt 0.254954 0.078676
vt 0.255085 0.093259
vt 0.310969 0.093259
vt 0.310969 0.126521
vt 0.255085 0.126521
vt 0.254954 0.159914
vt 0.254954 0.086863
vt 0.323448 0.159914
vt 0.255085 0.159914
vt 0.255085 0.126651
vt 0.323448 0.126651
vt 0.987618 0.474663
vt 0.962243 0.474686
vt 0.957902 0.751746
vt 0.983277 0.751723
vt 0.140038 0.681919
vt 0.137352 0.674792
vt 0.083415 0.702897
vt 0.087718 0.709181
vt 0.083415 0.988889
vt 0.088280 0.948543
vt 0.312799 0.494085
vt 0.429730 0.494084
vt 0.429730 0.386731
vt 0.312799 0.386732
vt 0.820665 0.512877
vt 0.823584 0.532807
vt 0.823584 0.318374
vt 0.820315 0.345491
vt 0.683862 0.356477
vt 0.681707 0.338434
vt 0.676728 0.532287
vt 0.679904 0.512289
vt 0.298871 0.496038
vt 0.298871 0.388685
vt 0.218202 0.388685
vt 0.218203 0.496038
vt 0.531485 0.467903
vt 0.666122 0.467901
vt 0.666122 0.416170
vt 0.531485 0.416170
vt 0.210980 0.417368
vt 0.094049 0.417370
vt 0.094049 0.464099
vt 0.210980 0.464099
vt 0.438777 0.387708
vt 0.438778 0.495061
vt 0.519442 0.495061
vt 0.519442 0.387708
vt 0.653568 0.842426
vt 0.663788 0.834782
vt 0.153579 0.834782
vt 0.227355 0.843482
vt 0.409068 0.922081
vt 0.401121 0.925511
vt 0.439160 0.991216
vt 0.446091 0.986032
vt 0.628648 0.964246
vt 0.627341 0.966006
vt 0.644020 0.975583
vt 0.644882 0.973567
vt 0.785169 0.991216
vt 0.735136 0.985316
vt 0.398550 0.536250
vt 0.357734 0.536248
vt 0.357734 0.693635
vt 0.398550 0.693637
vt 0.160684 0.536239
vt 0.160684 0.693609
vt 0.595621 0.536241
vt 0.595621 0.693645
vt 0.636442 0.536239
vt 0.636442 0.693643
vt 0.026987 0.500010
vt 0.030667 0.352633
vt 0.006908 0.352594
vt 0.003227 0.499971
vt 0.026992 0.004603
vt 0.003233 0.004564
vt 0.030667 0.848054
vt 0.006907 0.848015
vt 0.026989 0.995436
vt 0.003228 0.995398
vt 0.785169 0.549292
vt 0.735136 0.555192
vt 0.451981 0.897096
vt 0.452566 0.895728
vt 0.719877 0.931668
vt 0.708159 0.936725
vt 0.039647 0.000008
vt 0.034430 0.153222
vt 0.065865 0.153261
vt 0.071081 0.000048
vt 0.039635 0.499973
vt 0.071070 0.500012
vt 0.034424 0.653191
vt 0.039645 0.999952
vt 0.071081 0.999992
vt 0.065860 0.653230
vt 0.811537 0.358462
vt 0.814024 0.342085
vt 0.407943 0.988889
vt 0.403078 0.948543
vt 0.160857 0.721646
vt 0.162120 0.722325
vt 0.848141 0.164868
vt 0.848141 0.207040
vt 0.949658 0.207040
vt 0.949658 0.164868
vt 0.848141 0.063351
vt 0.848141 0.021180
vt 0.398235 0.021180
vt 0.398235 0.063352
vt 0.296719 0.164869
vt 0.296720 0.207040
vt 0.398236 0.207040
vt 0.398235 0.164869
vt 0.398235 0.147721
vt 0.398236 0.224188
vt 0.848141 0.224188
vt 0.848141 0.147720
vt 0.848141 0.066721
vt 0.398235 0.066721
vt 0.398235 0.143921
vt 0.848141 0.143920
vt 0.398236 0.305896
vt 0.848141 0.305896
vt 0.848141 0.229231
vt 0.398236 0.229231
vt 0.807861 0.381736
vt 0.685849 0.377131
vt 0.817887 0.490242
vt 0.817839 0.366308
vt 0.682966 0.489582
vt 0.613982 0.731305
vt 0.203095 0.731305
vt 0.203095 0.819372
vt 0.613982 0.819372
vt 0.962247 0.926516
vt 0.987620 0.926493
vt 0.983277 0.299875
vt 0.957899 0.299898
vt 0.987620 0.022788
vt 0.962243 0.022811
vt 0.836911 0.917571
vt 0.910307 0.928381
vt 0.877620 0.861575
vt 0.872561 0.862472
vt 0.080242 0.294194
vt 0.080242 0.339820
vt 0.197473 0.339820
vt 0.197473 0.294194
vt 0.869598 0.852140
vt 0.874657 0.851243
vt 0.910307 0.796144
vt 0.836911 0.785334
vt 0.842016 0.778347
vt 0.907433 0.787982
vt 0.916017 0.729702
vt 0.850600 0.720067
vt 0.839785 0.925733
vt 0.905202 0.935368
vt 0.834114 0.790645
vt 0.834114 0.912260
vt 0.913104 0.923070
vt 0.913104 0.801456
vt 0.858377 0.474410
vt 0.945251 0.474410
vt 0.945251 0.244091
vt 0.858377 0.244091
vt 0.793247 0.790645
vt 0.793248 0.912260
vt 0.831201 0.984013
vt 0.896618 0.993648
vt 0.953971 0.923070
vt 0.953971 0.801456
vt 0.836911 0.917571
vt 0.910307 0.928381
vt 0.877620 0.861575
vt 0.872561 0.862472
vt 0.080242 0.294194
vt 0.080242 0.339820
vt 0.197473 0.339820
vt 0.197473 0.294194
vt 0.869598 0.852140
vt 0.874657 0.851243
vt 0.910307 0.796144
vt 0.836911 0.785334
vt 0.842016 0.778347
vt 0.907433 0.787982
vt 0.916017 0.729702
vt 0.850600 0.720067
vt 0.839785 0.925733
vt 0.905202 0.935368
vt 0.834114 0.790645
vt 0.834114 0.912260
vt 0.913104 0.923070
vt 0.913104 0.801456
vt 0.850703 0.704450
vt 0.931540 0.704450
vt 0.931540 0.490137
vt 0.850703 0.490137
vt 0.793247 0.790645
vt 0.793248 0.912260
vt 0.831201 0.984013
vt 0.896618 0.993648
vt 0.953971 0.923070
vt 0.953971 0.801456
vn -1.0000 0.0000 0.0000
vn 0.0000 0.0000 1.0000
vn 1.0000 0.0000 0.0000
vn 0.0000 1.0000 0.0000
vn 0.0000 -1.0000 0.0000
vn 0.0000 0.0000 -1.0000
usemtl Material
s off
f 17/1/1 2/2/1 4/3/1 18/4/1
f 24/5/2 19/6/2 8/7/2 13/8/2
f 19/9/3 8/10/3 6/11/3 20/12/3
f 2/2/1 17/1/1 25/13/1 26/14/1
f 15/15/4 14/16/4 5/17/4 7/18/4
f 10/19/4 4/20/4 2/21/4 12/22/4
f 13/23/4 10/19/4 12/22/4 16/24/4
f 3/25/4 1/26/4 11/27/4 9/28/4
f 12/22/4 2/21/4 26/29/4 30/30/4
f 18/31/2 22/32/2 10/33/2 4/34/2
f 17/1/1 1/35/1 31/36/1 25/13/1
f 8/37/4 13/23/4 16/24/4 6/38/4
f 9/28/4 11/27/4 14/16/4 15/15/4
f 22/32/2 24/5/2 13/8/2 10/33/2
f 9/39/2 15/40/2 24/5/2 22/32/2
f 1/26/4 31/41/4 32/42/4 11/27/4
f 3/43/2 9/39/2 22/32/2 18/31/2
f 14/44/2 23/45/2 21/46/2 11/47/2
f 20/12/3 6/11/3 35/48/3 27/49/3
f 7/50/3 19/9/3 20/12/3 5/51/3
f 15/40/2 7/52/2 19/6/2 24/5/2
f 1/35/1 17/1/1 18/4/1 3/53/1
f 34/54/2 30/55/2 26/56/2 25/57/2
f 36/58/2 33/59/2 30/55/2 34/54/2
f 27/60/2 35/61/2 33/59/2 36/58/2
f 28/62/2 27/60/2 36/58/2 29/63/2
f 32/42/2 34/54/2 25/57/2 31/41/2
f 11/64/3 21/65/3 34/66/3 32/67/3
f 16/24/4 12/22/4 30/30/4 33/68/4
f 21/69/5 23/70/5 36/71/5 34/72/5
f 5/51/3 20/12/3 27/49/3 28/73/3
f 6/38/4 16/24/4 33/68/4 35/74/4
f 14/16/4 29/63/4 28/62/4 5/17/4
f 23/75/1 14/76/1 29/77/1 36/78/1
f 41/79/3 88/80/3 86/81/3 43/82/3
f 54/83/5 70/84/5 72/85/5 56/86/5
f 56/86/5 72/85/5 65/87/5 53/88/5
f 42/89/5 44/90/5 40/91/5 38/92/5
f 83/93/4 68/94/4 67/95/4 81/96/4
f 82/97/4 66/98/4 69/99/4 84/100/4
f 42/101/2 38/102/2 45/103/2 48/104/2
f 38/105/3 40/106/3 47/107/3 45/108/3
f 44/109/1 42/110/1 48/111/1 46/112/1
f 40/113/6 44/114/6 46/115/6 47/116/6
f 50/117/4 57/118/4 59/119/4 51/120/4
f 45/121/5 58/122/5 62/123/5 48/124/5
f 51/125/4 59/126/4 64/127/4 49/128/4
f 48/124/5 62/123/5 63/129/5 46/130/5
f 52/131/2 50/132/2 54/133/2 56/134/2
f 50/132/3 51/135/3 55/136/3 54/133/3
f 49/137/1 52/131/1 56/134/1 53/138/1
f 51/139/6 49/137/6 53/138/6 55/140/6
f 62/141/2 58/142/2 57/143/2 61/144/2
f 58/142/3 60/145/3 59/146/3 57/143/3
f 63/147/1 62/141/1 61/144/1 64/148/1
f 60/149/6 63/147/6 64/148/6 59/150/6
f 46/130/5 63/129/5 60/151/5 47/152/5
f 47/153/5 60/154/5 58/122/5 45/121/5
f 49/128/4 64/127/4 61/155/4 52/156/4
f 52/156/4 61/155/4 57/118/4 50/117/4
f 71/157/6 65/158/6 66/159/6 67/160/6
f 65/158/1 72/161/1 69/162/1 66/159/1
f 70/163/3 71/164/3 67/165/3 68/166/3
f 72/161/2 70/163/2 68/166/2 69/162/2
f 84/100/4 69/99/4 68/94/4 83/93/4
f 81/167/4 67/168/4 66/98/4 82/97/4
f 53/88/5 65/87/5 71/169/5 55/170/5
f 55/171/5 71/172/5 70/84/5 54/83/5
f 73/173/1 74/174/1 76/175/1 75/176/1
f 75/177/6 76/178/6 80/179/6 79/180/6
f 79/181/3 80/182/3 78/183/3 77/184/3
f 77/185/2 78/186/2 74/187/2 73/188/2
f 75/189/5 79/190/5 77/191/5 73/192/5
f 80/193/4 76/194/4 74/195/4 78/196/4
f 39/197/4 81/167/4 82/97/4 43/198/4
f 37/199/4 83/93/4 81/96/4 39/200/4
f 43/198/4 82/97/4 84/100/4 41/201/4
f 41/201/4 84/100/4 83/93/4 37/199/4
f 87/202/4 85/203/4 86/204/4 88/205/4
f 43/82/2 86/81/2 85/206/2 39/207/2
f 37/208/6 87/209/6 88/80/6 41/79/6
f 39/210/1 85/211/1 87/209/1 37/208/1
f 97/212/1 98/213/1 92/214/1 91/215/1
f 91/216/6 92/217/6 96/218/6 95/219/6
f 95/220/3 96/221/3 99/222/3 100/223/3
f 93/224/1 94/225/1 103/226/1 104/227/1
f 91/215/5 95/220/5 100/223/5 97/212/5
f 96/221/4 92/214/4 98/213/4 99/222/4
f 89/228/2 90/229/2 98/213/2 97/212/2
f 94/225/2 93/224/2 100/223/2 99/222/2
f 93/230/2 89/231/2 97/212/2 100/223/2
f 90/232/2 94/233/2 99/222/2 98/213/2
f 104/234/2 103/235/2 102/236/2 101/237/2
f 89/231/4 93/230/4 104/238/4 101/239/4
f 90/229/3 89/228/3 101/240/3 102/241/3
f 94/233/5 90/232/5 102/242/5 103/243/5
f 113/244/1 114/245/1 108/246/1 107/247/1
f 107/248/6 108/249/6 112/250/6 111/251/6
f 111/252/3 112/253/3 115/254/3 116/255/3
f 109/256/1 110/257/1 119/258/1 120/259/1
f 107/247/5 111/252/5 116/255/5 113/244/5
f 112/253/4 108/246/4 114/245/4 115/254/4
f 105/260/2 106/261/2 114/245/2 113/244/2
f 110/257/2 109/256/2 116/255/2 115/254/2
f 109/262/2 105/263/2 113/244/2 116/255/2
f 106/264/2 110/265/2 115/254/2 114/245/2
f 120/266/2 119/267/2 118/268/2 117/269/2
f 105/263/4 109/262/4 120/270/4 117/271/4
f 106/261/3 105/260/3 117/272/3 118/273/3
f 110/265/5 106/264/5 118/274/5 119/275/5
