# Blender v2.80 (sub 75) OBJ File: 'building10.blend'
# www.blender.org
mtllib build10Lights.mtl
o Cube.001
v -1.606531 17.057018 3.331712
v -0.803559 17.057018 3.331712
v -1.606530 16.968382 3.331712
v -1.606530 16.673710 3.331712
v -0.803559 16.968382 3.331712
v -0.803559 16.673710 3.331712
v -1.606530 16.175097 3.331712
v -0.803559 16.175097 3.331712
v -1.606531 6.732680 3.331712
v -0.803559 6.732680 3.331712
v -1.606530 6.644047 3.331712
v -1.606530 6.349374 3.331712
v -0.803559 6.644047 3.331712
v -0.803559 6.349374 3.331712
v -1.606530 5.850759 3.331712
v -0.803559 5.850759 3.331712
v 0.911680 10.201998 3.331712
v 1.714652 10.201998 3.331712
v 0.911681 10.113365 3.331712
v 0.911681 9.818690 3.331712
v 1.714652 10.113365 3.331712
v 1.714652 9.818690 3.331712
v 0.911681 9.320075 3.331712
v 1.714652 9.320075 3.331712
v 2.563172 6.732681 2.048872
v 2.563172 6.732681 1.245900
v 2.563172 6.644047 2.048871
v 2.563172 6.349374 2.048871
v 2.563172 6.644047 1.245900
v 2.563172 6.349374 1.245900
v 2.563172 5.850760 2.048871
v 2.563172 5.850760 1.245900
v 2.563172 13.588353 2.048872
v 2.563172 13.588353 1.245900
v 2.563172 13.499721 2.048871
v 2.563172 13.205046 2.048871
v 2.563172 13.499721 1.245900
v 2.563172 13.205046 1.245900
v 2.563172 12.706432 2.048871
v 2.563172 12.706432 1.245900
v 2.563172 10.201998 -1.223822
v 2.563172 10.201998 -2.026795
v 2.563172 10.113365 -1.223824
v 2.563172 9.818690 -1.223824
v 2.563172 10.113365 -2.026795
v 2.563172 9.818690 -2.026795
v 2.563172 9.320075 -1.223824
v 2.563172 9.320075 -2.026795
vt 0.303626 0.982287
vt 0.303626 0.986792
vt 0.237993 0.986792
vt 0.237993 0.982287
vt 0.303626 0.967309
vt 0.237993 0.967309
vt 0.303626 0.942581
vt 0.303626 0.967123
vt 0.237993 0.967123
vt 0.237306 0.942581
vt 0.303626 0.982287
vt 0.303626 0.986792
vt 0.237993 0.986792
vt 0.237993 0.982287
vt 0.303626 0.967309
vt 0.237993 0.967309
vt 0.303626 0.942581
vt 0.303626 0.967123
vt 0.237993 0.967123
vt 0.237306 0.942581
vt 0.303626 0.982287
vt 0.303626 0.986792
vt 0.237993 0.986792
vt 0.237993 0.982287
vt 0.303626 0.967309
vt 0.237993 0.967309
vt 0.303626 0.942581
vt 0.303626 0.967123
vt 0.237993 0.967123
vt 0.237306 0.942581
vt 0.303626 0.982287
vt 0.303626 0.986792
vt 0.237993 0.986792
vt 0.237993 0.982287
vt 0.303626 0.967309
vt 0.237993 0.967309
vt 0.303626 0.942581
vt 0.303626 0.967123
vt 0.237993 0.967123
vt 0.237306 0.942581
vt 0.303626 0.982287
vt 0.303626 0.986792
vt 0.237993 0.986792
vt 0.237993 0.982287
vt 0.303626 0.967309
vt 0.237993 0.967309
vt 0.303626 0.942581
vt 0.303626 0.967123
vt 0.237993 0.967123
vt 0.237306 0.942581
vt 0.303626 0.982287
vt 0.303626 0.986792
vt 0.237993 0.986792
vt 0.237993 0.982287
vt 0.303626 0.967309
vt 0.237993 0.967309
vt 0.303626 0.942581
vt 0.303626 0.967123
vt 0.237993 0.967123
vt 0.237306 0.942581
vn 0.0000 0.0000 1.0000
vn 1.0000 -0.0000 0.0000
usemtl Material
s off
f 5/1/1 2/2/1 1/3/1 3/4/1
f 6/5/1 5/1/1 3/4/1 4/6/1
f 8/7/1 6/8/1 4/9/1 7/10/1
f 13/11/1 10/12/1 9/13/1 11/14/1
f 14/15/1 13/11/1 11/14/1 12/16/1
f 16/17/1 14/18/1 12/19/1 15/20/1
f 21/21/1 18/22/1 17/23/1 19/24/1
f 22/25/1 21/21/1 19/24/1 20/26/1
f 24/27/1 22/28/1 20/29/1 23/30/1
f 29/31/2 26/32/2 25/33/2 27/34/2
f 30/35/2 29/31/2 27/34/2 28/36/2
f 32/37/2 30/38/2 28/39/2 31/40/2
f 37/41/2 34/42/2 33/43/2 35/44/2
f 38/45/2 37/41/2 35/44/2 36/46/2
f 40/47/2 38/48/2 36/49/2 39/50/2
f 45/51/2 42/52/2 41/53/2 43/54/2
f 46/55/2 45/51/2 43/54/2 44/56/2
f 48/57/2 46/58/2 44/59/2 47/60/2
