# Blender v2.80 (sub 75) OBJ File: 'swing.blend'
# www.blender.org
mtllib swing1.mtl
o Plane.000
v -2.965635 1.089228 0.173965
v -2.965635 1.089228 0.078402
v -2.965634 5.545732 0.173965
v -2.965634 5.545732 0.078402
v -2.975635 1.089228 0.173965
v -2.975635 1.089228 0.078402
v -2.975635 5.545732 0.173965
v -2.975635 5.545732 0.078402
v -1.593543 1.089228 0.173965
v -1.593543 1.089228 0.078402
v -1.593543 5.545732 0.173965
v -1.593543 5.545732 0.078402
v -1.603543 1.089228 0.173965
v -1.603543 1.089228 0.078402
v -1.603543 5.545732 0.173965
v -1.603543 5.545732 0.078402
v -3.015420 1.090771 0.313562
v -1.555693 1.090771 0.313562
v -3.015420 1.090771 -0.053197
v -1.555693 1.090771 -0.053197
v -3.015420 1.000771 0.313562
v -1.555693 1.000771 0.313562
v -3.015420 1.000771 -0.053197
v -1.555693 1.000771 -0.053197
vt 0.004193 0.000000
vt 0.033602 0.000000
vt 0.033602 1.000000
vt 0.004193 1.000000
vt 0.004193 0.000000
vt 0.004193 1.000000
vt 0.033602 1.000000
vt 0.033602 0.000000
vt 0.004193 0.000000
vt 0.033602 0.000000
vt 0.033602 1.000000
vt 0.004193 1.000000
vt 0.004193 0.000000
vt 0.004193 1.000000
vt 0.033602 1.000000
vt 0.033602 0.000000
vt 0.983843 0.515396
vt 0.732347 0.515396
vt 0.732347 0.263901
vt 0.983843 0.263900
vt 0.983843 0.001087
vt 0.983843 0.252583
vt 0.732347 0.252583
vt 0.732347 0.001087
vt 0.995161 0.263900
vt 0.995161 0.515396
vt 0.983843 0.526714
vt 0.732347 0.526714
vt 0.721030 0.515396
vt 0.721030 0.263901
vn 1.0000 -0.0000 0.0000
vn -1.0000 0.0000 0.0000
vn 0.0000 0.0000 1.0000
vn 0.0000 -1.0000 0.0000
vn 0.0000 0.0000 -1.0000
vn 0.0000 1.0000 0.0000
usemtl Material.001
s 1
f 1/1/1 2/2/1 4/3/1 3/4/1
f 5/5/2 7/6/2 8/7/2 6/8/2
f 1/1/3 3/4/3 7/6/3 5/5/3
f 2/2/4 1/1/4 5/5/4 6/8/4
f 4/3/5 2/2/5 6/8/5 8/7/5
f 3/4/6 4/3/6 8/7/6 7/6/6
f 9/9/1 10/10/1 12/11/1 11/12/1
f 13/13/2 15/14/2 16/15/2 14/16/2
f 9/9/3 11/12/3 15/14/3 13/13/3
f 10/10/4 9/9/4 13/13/4 14/16/4
f 12/11/5 10/10/5 14/16/5 16/15/5
f 11/12/6 12/11/6 16/15/6 15/14/6
f 17/17/6 18/18/6 20/19/6 19/20/6
f 21/21/4 23/22/4 24/23/4 22/24/4
f 17/17/2 19/20/2 23/25/2 21/26/2
f 18/18/3 17/17/3 21/27/3 22/28/3
f 20/19/1 18/18/1 22/29/1 24/30/1
f 19/20/5 20/19/5 24/23/5 23/22/5
